<svg width="32" height="32" viewBox="0 0 32 32" fill="none" xmlns="http://www.w3.org/2000/svg">
<path d="M7.52441 16.6709C7.52467 17.933 8.54837 18.9561 9.81055 18.9561H9.92773C11.1897 18.9558 12.2126 17.9329 12.2129 16.6709V16.6699H26.5234C27.0757 16.6699 27.5234 17.1176 27.5234 17.6699V25.3838C27.5234 25.9361 27.0757 26.3838 26.5234 26.3838H12.2129C12.2116 27.6449 11.1891 28.6667 9.92773 28.667H9.81055C8.54902 28.667 7.52572 27.645 7.52441 26.3838H5.66699C5.11471 26.3838 4.66699 25.9361 4.66699 25.3838V17.6699C4.66699 17.1176 5.11471 16.6699 5.66699 16.6699H7.52441V16.6709Z" fill="#F31500"/>
<path d="M24.0003 9.66602L18.0143 6.82266C17.8017 6.72167 17.6954 6.67118 17.6343 6.68917C17.5808 6.70494 17.5399 6.74485 17.5228 6.79799C17.5032 6.8586 17.5515 6.96703 17.6479 7.18389C17.9935 7.96077 18.5003 9.18266 18.5003 9.66602C18.5003 10.1494 17.9935 11.3713 17.6479 12.1481C17.5515 12.365 17.5032 12.4734 17.5228 12.534C17.5399 12.5872 17.5808 12.6271 17.6343 12.6429C17.6954 12.6609 17.8017 12.6104 18.0143 12.5094L24.0003 9.66602Z" fill="#5EC0FB"/>
<path d="M26.5234 4.66797C27.0757 4.66797 27.5234 5.11568 27.5234 5.66797V13.3818C27.5234 13.9341 27.0757 14.3818 26.5234 14.3818H12.2129L12.2012 14.6152C12.0841 15.7676 11.1109 16.6668 9.92773 16.667H9.81055C8.62717 16.667 7.65326 15.7677 7.53613 14.6152L7.52441 14.3818H5.66699C5.11471 14.3818 4.66699 13.9341 4.66699 13.3818V5.66797C4.66699 5.11568 5.11471 4.66797 5.66699 4.66797H26.5234Z" fill="#F31500"/>
<path d="M24.0003 9.66601L17.3337 6.66602L18.5003 9.66602L17.3337 12.666L24.0003 9.66601Z" fill="#5EC0FB"/>
<path d="M24.0003 21.666L17.3337 18.666L18.5003 21.666L17.3337 24.666L24.0003 21.666Z" fill="#5EC0FB"/>
</svg>
