<svg width="119" height="26" viewBox="0 0 119 26" fill="none" xmlns="http://www.w3.org/2000/svg">
<path d="M28.5704 20V6.66H31.3304L38.1904 15.9L37.2304 17.9V6.66H40.2104V20H37.7704L30.7904 10.88L31.5504 9.42V20H28.5704ZM47.523 20.3C46.5097 20.3 45.6097 20.0933 44.823 19.68C44.0497 19.2533 43.443 18.6533 43.003 17.88C42.5764 17.0933 42.363 16.16 42.363 15.08C42.363 13.32 42.7964 11.96 43.663 11C44.543 10.0267 45.7964 9.54 47.423 9.54C48.543 9.54 49.443 9.78 50.123 10.26C50.8164 10.74 51.323 11.44 51.643 12.36C51.963 13.28 52.1164 14.4 52.103 15.72H44.403L44.083 13.82H49.643L49.203 14.76C49.1897 13.68 49.0364 12.92 48.743 12.48C48.4497 12.04 47.9697 11.82 47.303 11.82C46.9297 11.82 46.5897 11.9133 46.283 12.1C45.9897 12.2867 45.7564 12.6 45.583 13.04C45.423 13.4667 45.343 14.06 45.343 14.82C45.343 15.78 45.5697 16.52 46.023 17.04C46.4897 17.56 47.2297 17.82 48.243 17.82C48.6164 17.82 48.983 17.78 49.343 17.7C49.7164 17.6067 50.063 17.5 50.383 17.38C50.703 17.26 50.9764 17.1533 51.203 17.06V19.62C50.723 19.82 50.183 19.98 49.583 20.1C48.9964 20.2333 48.3097 20.3 47.523 20.3ZM58.3135 20.4C57.1402 20.4 56.2668 20.1267 55.6935 19.58C55.1202 19.02 54.8335 18.2333 54.8335 17.22V12.16H53.3535V9.88H54.8335V7.1H57.9535V9.88H60.1735V12.16H57.9535V16.84C57.9535 17.1867 58.0268 17.4467 58.1735 17.62C58.3202 17.78 58.5668 17.86 58.9135 17.86C59.1135 17.86 59.3335 17.82 59.5735 17.74C59.8135 17.66 60.0135 17.56 60.1735 17.44V20C59.8935 20.1467 59.5868 20.2467 59.2535 20.3C58.9335 20.3667 58.6202 20.4 58.3135 20.4ZM65.3352 20V9.16H61.5952V6.66H72.3752V9.16H68.5752V20H65.3352ZM76.7845 20.3C76.1711 20.3 75.5911 20.24 75.0445 20.12C74.5111 20.0133 74.0378 19.8333 73.6245 19.58C73.2245 19.3133 72.9111 18.96 72.6845 18.52C72.4578 18.0667 72.3445 17.5067 72.3445 16.84C72.3445 16.2133 72.4711 15.6667 72.7245 15.2C72.9911 14.7333 73.3911 14.3733 73.9245 14.12C74.4578 13.8667 75.1311 13.74 75.9445 13.74C76.3978 13.74 76.8378 13.7867 77.2645 13.88C77.6911 13.9733 78.0711 14.1 78.4045 14.26C78.7511 14.42 79.0245 14.5933 79.2245 14.78L79.3445 16.22C79.0778 16.06 78.7578 15.9333 78.3845 15.84C78.0111 15.7467 77.6111 15.7 77.1845 15.7C76.5311 15.7 76.0511 15.8 75.7445 16C75.4511 16.1867 75.3045 16.4867 75.3045 16.9C75.3045 17.1533 75.3778 17.38 75.5245 17.58C75.6711 17.78 75.8645 17.9333 76.1045 18.04C76.3578 18.1467 76.6178 18.2 76.8845 18.2C77.5645 18.2 78.0378 18.1533 78.3045 18.06C78.5845 17.9667 78.7245 17.78 78.7245 17.5V13.78C78.7245 13.1667 78.5245 12.7267 78.1245 12.46C77.7378 12.18 77.1845 12.04 76.4645 12.04C75.8778 12.04 75.2845 12.1467 74.6845 12.36C74.0978 12.56 73.6178 12.8067 73.2445 13.1V10.46C73.5911 10.2467 74.1245 10.0467 74.8445 9.86C75.5778 9.67333 76.3978 9.58 77.3045 9.58C77.6245 9.58 77.9778 9.60667 78.3645 9.66C78.7511 9.71333 79.1378 9.81333 79.5245 9.96C79.9111 10.0933 80.2645 10.2933 80.5845 10.56C80.9178 10.8267 81.1845 11.1667 81.3845 11.58C81.5845 11.9933 81.6845 12.5067 81.6845 13.12L81.6645 17.9C81.6645 18.4733 81.4711 18.94 81.0845 19.3C80.6978 19.6467 80.1378 19.9 79.4045 20.06C78.6845 20.22 77.8111 20.3 76.7845 20.3ZM84.3298 10.74C84.5831 10.6067 84.9164 10.4733 85.3298 10.34C85.7431 10.1933 86.1964 10.0667 86.6898 9.96C87.1831 9.85333 87.6764 9.76667 88.1698 9.7C88.6764 9.63333 89.1431 9.6 89.5698 9.6C90.4764 9.6 91.2498 9.72 91.8898 9.96C92.5298 10.1867 93.0164 10.56 93.3498 11.08C93.6964 11.6 93.8698 12.3067 93.8698 13.2V20H90.8898V13.8C90.8898 13.5467 90.8498 13.3133 90.7698 13.1C90.7031 12.8867 90.5964 12.7067 90.4498 12.56C90.3031 12.4 90.1031 12.28 89.8498 12.2C89.5964 12.1067 89.2898 12.06 88.9298 12.06C88.6231 12.06 88.3164 12.1 88.0098 12.18C87.7031 12.2467 87.4698 12.32 87.3098 12.4V20H84.3298V10.74ZM100.397 20.3C99.4773 20.2467 98.6839 20.0333 98.0173 19.66C97.3639 19.2867 96.8506 18.74 96.4773 18.02C96.1173 17.2867 95.9373 16.3667 95.9373 15.26C95.9373 14.14 96.0773 13.2133 96.3573 12.48C96.6373 11.7333 97.0239 11.1533 97.5173 10.74C98.0239 10.3267 98.6306 10.0333 99.3373 9.86C100.044 9.68667 100.831 9.6 101.697 9.6C102.537 9.6 103.271 9.70667 103.897 9.92C104.524 10.1333 105.011 10.44 105.357 10.84C105.704 11.24 105.877 11.7333 105.877 12.32V20.12C105.877 20.8267 105.764 21.4467 105.537 21.98C105.311 22.5267 104.971 22.98 104.517 23.34C104.077 23.7133 103.537 23.9933 102.897 24.18C102.271 24.3667 101.544 24.46 100.717 24.46C99.8239 24.46 99.0573 24.3933 98.4173 24.26C97.7906 24.14 97.3106 23.9867 96.9773 23.8V21.18C97.1773 21.26 97.4706 21.3667 97.8573 21.5C98.2439 21.6333 98.6773 21.74 99.1573 21.82C99.6373 21.9133 100.117 21.96 100.597 21.96C101.224 21.96 101.704 21.8733 102.037 21.7C102.384 21.5267 102.624 21.2933 102.757 21C102.891 20.7067 102.957 20.3733 102.957 20V18.36L103.537 18.78C103.324 19.0867 103.071 19.3533 102.777 19.58C102.484 19.8067 102.137 19.98 101.737 20.1C101.351 20.2333 100.904 20.3 100.397 20.3ZM101.157 18.06C101.504 18.06 101.824 18.0267 102.117 17.96C102.411 17.88 102.691 17.7667 102.957 17.62V12.98C102.957 12.7 102.877 12.4867 102.717 12.34C102.557 12.1933 102.357 12.0933 102.117 12.04C101.877 11.9867 101.624 11.96 101.357 11.96C100.744 11.96 100.257 12.0933 99.8973 12.36C99.5506 12.6267 99.2973 13 99.1373 13.48C98.9906 13.9467 98.9173 14.48 98.9173 15.08C98.9173 16 99.1239 16.7267 99.5373 17.26C99.9506 17.7933 100.491 18.06 101.157 18.06ZM112.933 20.3C111.226 20.3 109.939 19.8467 109.073 18.94C108.219 18.02 107.793 16.6733 107.793 14.9C107.793 12.9933 108.226 11.6267 109.093 10.8C109.973 9.96 111.253 9.54 112.933 9.54C114.066 9.54 115.013 9.73333 115.773 10.12C116.546 10.4933 117.126 11.0733 117.513 11.86C117.913 12.6467 118.113 13.66 118.113 14.9C118.113 16.6733 117.666 18.02 116.773 18.94C115.879 19.8467 114.599 20.3 112.933 20.3ZM112.933 17.92C113.426 17.92 113.833 17.8067 114.153 17.58C114.486 17.34 114.733 17 114.893 16.56C115.066 16.1067 115.153 15.5533 115.153 14.9C115.153 14.1533 115.066 13.5667 114.893 13.14C114.733 12.7 114.486 12.3867 114.153 12.2C113.819 12 113.413 11.9 112.933 11.9C112.426 11.9 112.013 12 111.693 12.2C111.373 12.4 111.133 12.72 110.973 13.16C110.826 13.5867 110.753 14.1667 110.753 14.9C110.753 15.9133 110.926 16.6733 111.273 17.18C111.633 17.6733 112.186 17.92 112.933 17.92Z" fill="black"/>
<path d="M2.85742 14.0029C2.85768 15.265 3.88138 16.2881 5.14355 16.2881H5.26074C6.52271 16.2878 7.54564 15.2649 7.5459 14.0029V14.002H21.8564C22.4087 14.002 22.8564 14.4497 22.8564 15.002V22.7158C22.8564 23.2681 22.4087 23.7158 21.8564 23.7158H7.5459C7.54459 24.9769 6.52206 25.9988 5.26074 25.999H5.14355C3.88203 25.999 2.85873 24.977 2.85742 23.7158H1C0.447716 23.7158 0 23.2681 0 22.7158V15.002C0 14.4497 0.447715 14.002 1 14.002H2.85742V14.0029Z" fill="#F31500"/>
<path d="M19.3333 6.99803L13.3473 4.15467C13.1347 4.05368 13.0284 4.00319 12.9673 4.02118C12.9138 4.03695 12.8729 4.07686 12.8558 4.13C12.8363 4.19061 12.8845 4.29904 12.9809 4.5159C13.3265 5.29278 13.8333 6.51467 13.8333 6.99803C13.8333 7.48138 13.3265 8.70328 12.9809 9.48016C12.8845 9.69701 12.8363 9.80544 12.8558 9.86605C12.8729 9.91919 12.9138 9.95911 12.9673 9.97488C13.0284 9.99286 13.1347 9.94237 13.3473 9.84139L19.3333 6.99803Z" fill="#5EC0FB"/>
<path d="M21.8564 2C22.4087 2 22.8564 2.44772 22.8564 3V10.7139C22.8564 11.2662 22.4087 11.7139 21.8564 11.7139H7.5459L7.53418 11.9473C7.41707 13.0996 6.44392 13.9988 5.26074 13.999H5.14355C3.96017 13.999 2.98627 13.0997 2.86914 11.9473L2.85742 11.7139H1C0.447716 11.7139 0 11.2662 0 10.7139V3C0 2.44772 0.447715 2 1 2H21.8564Z" fill="#F31500"/>
<path d="M19.3333 6.99805L12.6667 3.99805L13.8333 6.99805L12.6667 9.99805L19.3333 6.99805Z" fill="#5EC0FB"/>
<path d="M19.3333 18.998L12.6667 15.998L13.8333 18.998L12.6667 21.998L19.3333 18.998Z" fill="#5EC0FB"/>
</svg>
